<svg xmlns="http://www.w3.org/2000/svg" version="1.1" xmlns:xlink="http://www.w3.org/1999/xlink" xmlns:svgjs="http://svgjs.dev/svgjs" width="1500" height="1500" viewBox="0 0 1500 1500"><rect width="1500" height="1500" fill="#ffffff"></rect><g transform="matrix(0.6666666666666666,0,0,0.6666666666666666,249.39393939393938,639.9282165349808)"><svg viewBox="0 0 396 87" data-background-color="#ffffff" preserveAspectRatio="xMidYMid meet" height="329" width="1500" xmlns="http://www.w3.org/2000/svg" xmlns:xlink="http://www.w3.org/1999/xlink"><g id="tight-bounds" transform="matrix(1,0,0,1,0.2400000000000091,0.16069222548634343)"><svg viewBox="0 0 395.52 86.67861554902731" height="86.67861554902731" width="395.52"><g><svg viewBox="0 0 550.1303429148966 120.56163151136448" height="86.67861554902731" width="395.52"><g><rect width="7.152690829292897" height="120.56163151136448" x="128.73333054295207" y="0" fill="#000000" opacity="1" stroke-width="0" stroke="transparent" fill-opacity="1" class="rect-yte-0" data-fill-palette-color="primary" rx="1%" id="yte-0" data-palette-color="#ffb32f"></rect></g><g transform="matrix(1,0,0,1,154.61034291489653,0.2999045559984097)"><svg viewBox="0 0 395.52 119.96182239936766" height="119.96182239936766" width="395.52"><g id="textblocktransform"><svg viewBox="0 0 395.52 119.96182239936766" height="119.96182239936766" width="395.52" id="textblock"><g><svg viewBox="0 0 395.52 79.31480346435708" height="79.31480346435708" width="395.52"><g transform="matrix(1,0,0,1,0,0)"><svg width="395.52" viewBox="1.1 -35 225.13 45.15" height="79.31480346435708" data-palette-color="#ffb32f"><path d="M27.45 0L23.85-9.7 8.5-9.7 4.9 0 1.1 0 14.55-35 16.25-35Q17.9-35 18.65-33L18.65-33 26.35-12.8 26.4-12.8 26.4-12.7 31.25 0 27.45 0ZM16.15-30.2L9.65-12.8 22.7-12.8 16.2-30.2 16.15-30.2ZM43.7 10.15Q40.4 10.15 38.25 8.38 36.1 6.6 35.85 3.7L35.85 3.7 39.45 3.7Q39.65 5.2 40.82 6.13 42 7.05 43.7 7.05L43.7 7.05 47.6 7.05Q50.2 7.05 51.62 5.33 53.05 3.6 53.05 0.5L53.05 0.5 53.05-4.1Q51.85-2.3 50.02-1.15 48.2 0 46.4 0L46.4 0 43.2 0Q39.7 0 37.52-2.35 35.35-4.7 35.35-8.5L35.35-8.5 35.35-24.95 38.95-24.95 38.95-8.4Q38.95-6.05 40.12-4.63 41.3-3.2 43.2-3.2L43.2-3.2 46.3-3.2Q48.6-3.2 50.55-5.05 52.5-6.9 53.05-9.7L53.05-9.7 53.05-24.95 56.65-24.95 56.65 0.5Q56.65 5.05 54.25 7.6 51.85 10.15 47.6 10.15L47.6 10.15 43.7 10.15ZM71.45 0.4Q67.8 0.4 65.62-1.5 63.45-3.4 63.45-6.6L63.45-6.6 63.45-8.2Q63.45-11.35 65.7-13.25 67.95-15.15 71.65-15.15L71.65-15.15 74.85-15.15Q76.5-15.15 78.25-14.65 80-14.15 81.25-13.3L81.25-13.3 81.25-17.45Q81.25-19.55 79.95-20.88 78.65-22.2 76.5-22.2L76.5-22.2 72.5-22.2Q70.35-22.2 69.05-21.2 67.75-20.2 67.75-18.55L67.75-18.55 64.15-18.55Q64.15-21.6 66.45-23.48 68.75-25.35 72.5-25.35L72.5-25.35 76.5-25.35Q80.2-25.35 82.47-23.18 84.75-21 84.75-17.45L84.75-17.45 84.75 0 81.35 0 81.35-3.5Q80.2-1.7 78.32-0.65 76.45 0.4 74.45 0.4L74.45 0.4 71.45 0.4ZM71.45-2.75L74.55-2.75Q76.9-2.75 78.75-4.2 80.6-5.65 81.25-8.05L81.25-8.05 81.25-9.9Q80.25-10.85 78.47-11.43 76.7-12 74.85-12L74.85-12 71.65-12Q69.6-12 68.32-10.95 67.05-9.9 67.05-8.2L67.05-8.2 67.05-6.6Q67.05-4.85 68.25-3.8 69.45-2.75 71.45-2.75L71.45-2.75ZM92.04 0L92.04-24.95 95.54-24.95 95.54-21.25Q96.69-23.05 98.54-24.2 100.39-25.35 102.24-25.35L102.24-25.35 105.64-25.35Q109.09-25.35 111.22-23 113.34-20.65 113.34-16.85L113.34-16.85 113.34 0 109.74 0 109.74-16.95Q109.74-19.25 108.59-20.7 107.44-22.15 105.54-22.15L105.54-22.15 102.34-22.15Q99.99-22.15 98.07-20.3 96.14-18.45 95.64-15.55L95.64-15.55 95.64 0 92.04 0ZM128.39 0.4Q125.84 0.4 123.84-0.8 121.84-2 120.74-4.15 119.64-6.3 119.64-9.15L119.64-9.15 119.64-15.15Q119.64-18.15 120.79-20.48 121.94-22.8 124.04-24.08 126.14-25.35 128.84-25.35L128.84-25.35 132.54-25.35Q134.24-25.35 135.81-24.55 137.39-23.75 138.34-22.35L138.34-22.35 138.34-35 141.94-35 141.94 0 138.44 0 138.44-3.7Q137.29-1.85 135.44-0.73 133.59 0.4 131.84 0.4L131.84 0.4 128.39 0.4ZM128.49-2.8L131.74-2.8Q133.34-2.8 134.84-3.83 136.34-4.85 137.29-6.5 138.24-8.15 138.34-9.9L138.34-9.9 138.34-16.2Q137.99-18.85 136.37-20.5 134.74-22.15 132.44-22.15L132.44-22.15 128.94-22.15Q126.39-22.15 124.81-20.23 123.24-18.3 123.24-15.15L123.24-15.15 123.24-9.15Q123.24-6.35 124.72-4.58 126.19-2.8 128.49-2.8L128.49-2.8ZM156.74 0.4Q153.09 0.4 150.91-1.5 148.74-3.4 148.74-6.6L148.74-6.6 148.74-8.2Q148.74-11.35 150.99-13.25 153.24-15.15 156.94-15.15L156.94-15.15 160.14-15.15Q161.79-15.15 163.54-14.65 165.29-14.15 166.54-13.3L166.54-13.3 166.54-17.45Q166.54-19.55 165.24-20.88 163.94-22.2 161.79-22.2L161.79-22.2 157.79-22.2Q155.64-22.2 154.34-21.2 153.04-20.2 153.04-18.55L153.04-18.55 149.44-18.55Q149.44-21.6 151.74-23.48 154.04-25.35 157.79-25.35L157.79-25.35 161.79-25.35Q165.49-25.35 167.76-23.18 170.04-21 170.04-17.45L170.04-17.45 170.04 0 166.64 0 166.64-3.5Q165.49-1.7 163.61-0.65 161.74 0.4 159.74 0.4L159.74 0.4 156.74 0.4ZM156.74-2.75L159.84-2.75Q162.19-2.75 164.04-4.2 165.89-5.65 166.54-8.05L166.54-8.05 166.54-9.9Q165.54-10.85 163.76-11.43 161.99-12 160.14-12L160.14-12 156.94-12Q154.89-12 153.61-10.95 152.34-9.9 152.34-8.2L152.34-8.2 152.34-6.6Q152.34-4.85 153.54-3.8 154.74-2.75 156.74-2.75L156.74-2.75ZM216.73 0L212.13 0 198.63-16.75 194.23-12.1 194.23 0 190.53 0 190.53-35 194.23-35 194.23-16.7 211.23-35 215.83-35 201.18-19.45 216.73 0ZM223.53 0.5Q222.33 0.5 221.58-0.25 220.83-1 220.83-2.2L220.83-2.2Q220.83-3.4 221.58-4.15 222.33-4.9 223.53-4.9L223.53-4.9Q224.73-4.9 225.48-4.15 226.23-3.4 226.23-2.2L226.23-2.2Q226.23-1 225.48-0.25 224.73 0.5 223.53 0.5L223.53 0.5Z" opacity="1" transform="matrix(1,0,0,1,0,0)" fill="#000000" class="wordmark-text-0" data-fill-palette-color="primary" id="text-0"></path></svg></g></svg></g><g transform="matrix(1,0,0,1,0,98.03912500700865)"><svg viewBox="0 0 395.52 21.92269739235901" height="21.92269739235901" width="395.52"><g transform="matrix(1,0,0,1,0,0)"><svg width="395.52" viewBox="4.55 -37.35 824.4100000000001 45.7" height="21.92269739235901" data-palette-color="#51d1be"><path d="M4.55 0L4.55-36.75 10.15-36.75 10.15 0 4.55 0ZM18.25 0L18.25-22.95 23.55-22.95 23.6-18.75Q24.55-20.85 26.6-22.2 28.65-23.55 31.4-23.55L31.4-23.55Q34.95-23.55 36.85-22.08 38.75-20.6 39.4-17.95 40.05-15.3 40.05-11.05L40.05-11.05 40.05 0 34.65 0 34.65-10.9Q34.65-15.25 33.8-17.18 32.95-19.1 30.3-19.1L30.3-19.1Q28.8-19.1 27.25-18.18 25.7-17.25 24.67-15.5 23.65-13.75 23.65-11.4L23.65-11.4 23.65 0 18.25 0ZM47 0L47-22.95 52.3-22.95 52.35-18.75Q53.3-20.85 55.35-22.2 57.4-23.55 60.15-23.55L60.15-23.55Q63.7-23.55 65.6-22.08 67.5-20.6 68.15-17.95 68.8-15.3 68.8-11.05L68.8-11.05 68.8 0 63.4 0 63.4-10.9Q63.4-15.25 62.55-17.18 61.7-19.1 59.05-19.1L59.05-19.1Q57.55-19.1 56-18.18 54.45-17.25 53.42-15.5 52.4-13.75 52.4-11.4L52.4-11.4 52.4 0 47 0ZM86.44 0.5Q82.89 0.5 80.14-1.1 77.39-2.7 75.89-5.45 74.39-8.2 74.39-11.55L74.39-11.55Q74.39-14.85 75.87-17.6 77.34-20.35 80.09-21.95 82.84-23.55 86.44-23.55L86.44-23.55Q90.04-23.55 92.77-21.95 95.49-20.35 96.97-17.6 98.44-14.85 98.44-11.55L98.44-11.55Q98.44-8.2 96.94-5.45 95.44-2.7 92.72-1.1 89.99 0.5 86.44 0.5L86.44 0.5ZM86.59-3.9Q89.49-3.9 91.17-6.05 92.84-8.2 92.84-11.45L92.84-11.45Q92.84-14.7 91.04-16.93 89.24-19.15 86.29-19.15L86.29-19.15Q83.44-19.15 81.72-16.95 79.99-14.75 79.99-11.45L79.99-11.45Q79.99-8.25 81.84-6.08 83.69-3.9 86.59-3.9L86.59-3.9ZM112.64 0L100.54-22.95 106.69-22.95 111.64-12.6 113.24-8.45 114.84-12.6 119.74-22.95 125.74-22.95 113.69 0 112.64 0ZM139.34 0.5Q136.24 0.5 133.61-0.98 130.99-2.45 129.41-5.18 127.84-7.9 127.84-11.55L127.84-11.55Q127.84-15.15 129.21-17.85 130.59-20.55 133.14-22.05 135.69-23.55 139.14-23.55L139.14-23.55Q141.14-23.55 142.89-22.85 144.64-22.15 145.84-21.13 147.04-20.1 147.44-19.1L147.44-19.1 147.54-22.95 152.69-22.95 152.69 0 147.59 0 147.49-4.05Q146.64-2.25 144.39-0.88 142.14 0.5 139.34 0.5L139.34 0.5ZM140.24-4Q143.09-4 145.04-5.98 146.99-7.95 146.99-11.15L146.99-11.15 146.99-11.5Q146.99-13.65 146.09-15.35 145.19-17.05 143.64-18 142.09-18.95 140.24-18.95L140.24-18.95Q137.04-18.95 135.29-16.88 133.54-14.8 133.54-11.5L133.54-11.5Q133.54-8.15 135.26-6.08 136.99-4 140.24-4L140.24-4ZM161.94 0L161.94-18.55 157.89-18.55 157.89-22.95 161.94-22.95 161.94-32.3 167.39-33.5 167.39-22.95 172.69-22.95 172.69-18.55 167.39-18.55 167.39 0 161.94 0ZM177.48 0L177.48-22.95 183.08-22.95 183.08 0 177.48 0ZM180.23-27.25Q178.68-27.25 177.63-28.3 176.58-29.35 176.58-30.9L176.58-30.9Q176.58-32.3 177.63-33.3 178.68-34.3 180.23-34.3L180.23-34.3Q181.73-34.3 182.78-33.3 183.83-32.3 183.83-30.9L183.83-30.9Q183.83-29.35 182.81-28.3 181.78-27.25 180.23-27.25L180.23-27.25ZM199.03 0L186.93-22.95 193.08-22.95 198.03-12.6 199.63-8.45 201.23-12.6 206.13-22.95 212.13-22.95 200.08 0 199.03 0ZM225.83 0.5Q221.73 0.5 218.98-1.13 216.23-2.75 214.93-5.48 213.63-8.2 213.63-11.45L213.63-11.45Q213.63-15.1 215.15-17.85 216.68-20.6 219.38-22.08 222.08-23.55 225.48-23.55L225.48-23.55Q230.78-23.55 233.35-20.63 235.93-17.7 235.93-12.4L235.93-12.4Q235.93-11.05 235.78-9.6L235.78-9.6 219.28-9.6Q219.83-6.55 221.45-5.2 223.08-3.85 225.98-3.85L225.98-3.85Q228.38-3.85 229.93-4.25 231.48-4.65 232.78-5.35L232.78-5.35 234.43-1.5Q233.18-0.7 231.03-0.1 228.88 0.5 225.83 0.5L225.83 0.5ZM219.28-13.35L230.68-13.35Q230.73-16.45 229.33-17.73 227.93-19 225.33-19L225.33-19Q220.08-19 219.28-13.35L219.28-13.35ZM262.62 0.5Q259.62 0.5 256.67-0.55 253.72-1.6 252.42-2.9L252.42-2.9 255.07-7.65Q256.12-6.7 258.35-5.68 260.57-4.65 262.62-4.65L262.62-4.65Q265.27-4.65 266.95-5.9 268.62-7.15 268.62-9.35L268.62-9.35Q268.62-11.05 267.72-12.3 266.82-13.55 265.52-14.38 264.22-15.2 261.82-16.4L261.82-16.4Q258.97-17.8 257.92-18.5L257.92-18.5Q253.07-21.75 253.07-27.5L253.07-27.5Q253.07-32.25 256.22-34.77 259.37-37.3 264.17-37.3L264.17-37.3Q269.32-37.3 272.92-34.35L272.92-34.35 270.27-29.8Q269.32-30.8 267.6-31.53 265.87-32.25 263.92-32.25L263.92-32.25Q261.42-32.25 260-31.13 258.57-30 258.57-27.8L258.57-27.8Q258.57-26.25 259.47-25.03 260.37-23.8 261.75-22.9 263.12-22 265.47-20.7L265.47-20.7Q267.72-19.45 268.92-18.73 270.12-18 271.17-17L271.17-17Q272.62-15.7 273.52-13.9 274.42-12.1 274.42-9.95L274.42-9.95Q274.42-6.6 272.9-4.25 271.37-1.9 268.7-0.7 266.02 0.5 262.62 0.5L262.62 0.5ZM290.77 0.5Q287.22 0.5 284.47-1.1 281.72-2.7 280.22-5.45 278.72-8.2 278.72-11.55L278.72-11.55Q278.72-14.85 280.2-17.6 281.67-20.35 284.42-21.95 287.17-23.55 290.77-23.55L290.77-23.55Q294.37-23.55 297.1-21.95 299.82-20.35 301.3-17.6 302.77-14.85 302.77-11.55L302.77-11.55Q302.77-8.2 301.27-5.45 299.77-2.7 297.05-1.1 294.32 0.5 290.77 0.5L290.77 0.5ZM290.92-3.9Q293.82-3.9 295.5-6.05 297.17-8.2 297.17-11.45L297.17-11.45Q297.17-14.7 295.37-16.93 293.57-19.15 290.62-19.15L290.62-19.15Q287.77-19.15 286.05-16.95 284.32-14.75 284.32-11.45L284.32-11.45Q284.32-8.25 286.17-6.08 288.02-3.9 290.92-3.9L290.92-3.9ZM310.67 0L310.67-18.65 306.97-18.65 306.97-22.95 310.67-22.95 310.67-27.9Q310.67-32.4 312.84-34.88 315.02-37.35 319.22-37.35L319.22-37.35Q320.92-37.35 323.07-36.4L323.07-36.4 322.02-31.3Q321.67-31.7 320.94-32.08 320.22-32.45 319.37-32.45L319.37-32.45Q316.02-32.45 315.97-28.1L315.97-28.1 315.97-22.95 321.37-22.95 321.37-18.65 315.97-18.65 315.97 0 310.67 0ZM328.62 0L328.62-18.55 324.57-18.55 324.57-22.95 328.62-22.95 328.62-32.3 334.07-33.5 334.07-22.95 339.37-22.95 339.37-18.55 334.07-18.55 334.07 0 328.62 0ZM364.56 0L357.76-12.75 350.96 0 350.01 0 340.36-22.95 346.16-22.95 351.11-9.6 357.66-22.95 357.86-22.95 364.46-9.7 369.41-22.95 375.11-22.95 365.51 0 364.56 0ZM388.96 0.5Q385.86 0.5 383.24-0.98 380.61-2.45 379.04-5.18 377.46-7.9 377.46-11.55L377.46-11.55Q377.46-15.15 378.84-17.85 380.21-20.55 382.76-22.05 385.31-23.55 388.76-23.55L388.76-23.55Q390.76-23.55 392.51-22.85 394.26-22.15 395.46-21.13 396.66-20.1 397.06-19.1L397.06-19.1 397.16-22.95 402.31-22.95 402.31 0 397.21 0 397.11-4.05Q396.26-2.25 394.01-0.88 391.76 0.5 388.96 0.5L388.96 0.5ZM389.86-4Q392.71-4 394.66-5.98 396.61-7.95 396.61-11.15L396.61-11.15 396.61-11.5Q396.61-13.65 395.71-15.35 394.81-17.05 393.26-18 391.71-18.95 389.86-18.95L389.86-18.95Q386.66-18.95 384.91-16.88 383.16-14.8 383.16-11.5L383.16-11.5Q383.16-8.15 384.89-6.08 386.61-4 389.86-4L389.86-4ZM409.41 0L409.41-22.95 414.81-22.95 414.81-18.45Q415.61-20.75 417.41-22.15 419.21-23.55 421.51-23.55L421.51-23.55Q423.11-23.55 423.71-23.25L423.71-23.25 422.96-17.8Q422.51-18.1 421.01-18.1L421.01-18.1Q418.66-18.1 416.73-16.6 414.81-15.1 414.81-11.8L414.81-11.8 414.81 0 409.41 0ZM438.36 0.5Q434.26 0.5 431.51-1.13 428.76-2.75 427.46-5.48 426.16-8.2 426.16-11.45L426.16-11.45Q426.16-15.1 427.68-17.85 429.21-20.6 431.91-22.08 434.61-23.55 438.01-23.55L438.01-23.55Q443.31-23.55 445.88-20.63 448.46-17.7 448.46-12.4L448.46-12.4Q448.46-11.05 448.31-9.6L448.31-9.6 431.81-9.6Q432.36-6.55 433.98-5.2 435.61-3.85 438.51-3.85L438.51-3.85Q440.91-3.85 442.46-4.25 444.01-4.65 445.31-5.35L445.31-5.35 446.96-1.5Q445.71-0.7 443.56-0.1 441.41 0.5 438.36 0.5L438.36 0.5ZM431.81-13.35L443.21-13.35Q443.26-16.45 441.86-17.73 440.46-19 437.86-19L437.86-19Q432.61-19 431.81-13.35L431.81-13.35ZM453.15 8.35Q455.15 4.05 456.2 0.4L456.2 0.4Q453.85-0.35 453.85-3.05L453.85-3.05Q453.85-4.6 454.88-5.63 455.9-6.65 457.45-6.65L457.45-6.65Q459.05-6.65 460-5.48 460.95-4.3 460.95-2.1L460.95-2.1Q460.95 0.15 459.58 3 458.2 5.85 456.4 8.35L456.4 8.35 453.15 8.35ZM487.55 0L487.55-31.85 478.15-31.85 478.15-36.75 502.6-36.75 502.6-31.85 493.1-31.85 493.1 0 487.55 0ZM513.8 0.5Q510.7 0.5 508.07-0.98 505.45-2.45 503.87-5.18 502.3-7.9 502.3-11.55L502.3-11.55Q502.3-15.15 503.67-17.85 505.05-20.55 507.6-22.05 510.15-23.55 513.6-23.55L513.6-23.55Q515.6-23.55 517.35-22.85 519.1-22.15 520.3-21.13 521.5-20.1 521.9-19.1L521.9-19.1 522-22.95 527.15-22.95 527.15 0 522.05 0 521.95-4.05Q521.1-2.25 518.85-0.88 516.6 0.5 513.8 0.5L513.8 0.5ZM514.7-4Q517.55-4 519.5-5.98 521.45-7.95 521.45-11.15L521.45-11.15 521.45-11.5Q521.45-13.65 520.55-15.35 519.65-17.05 518.1-18 516.55-18.95 514.7-18.95L514.7-18.95Q511.5-18.95 509.75-16.88 508-14.8 508-11.5L508-11.5Q508-8.15 509.72-6.08 511.45-4 514.7-4L514.7-4ZM534.79 0L534.79-22.95 540.39-22.95 540.39 0 534.79 0ZM537.54-27.25Q535.99-27.25 534.94-28.3 533.89-29.35 533.89-30.9L533.89-30.9Q533.89-32.3 534.94-33.3 535.99-34.3 537.54-34.3L537.54-34.3Q539.04-34.3 540.09-33.3 541.14-32.3 541.14-30.9L541.14-30.9Q541.14-29.35 540.12-28.3 539.09-27.25 537.54-27.25L537.54-27.25ZM548.34 0L548.34-36.75 553.69-36.75 553.69 0 548.34 0ZM571.99 0.5Q568.44 0.5 565.69-1.1 562.94-2.7 561.44-5.45 559.94-8.2 559.94-11.55L559.94-11.55Q559.94-14.85 561.41-17.6 562.89-20.35 565.64-21.95 568.39-23.55 571.99-23.55L571.99-23.55Q575.59-23.55 578.31-21.95 581.04-20.35 582.51-17.6 583.99-14.85 583.99-11.55L583.99-11.55Q583.99-8.2 582.49-5.45 580.99-2.7 578.26-1.1 575.54 0.5 571.99 0.5L571.99 0.5ZM572.14-3.9Q575.04-3.9 576.71-6.05 578.39-8.2 578.39-11.45L578.39-11.45Q578.39-14.7 576.59-16.93 574.79-19.15 571.84-19.15L571.84-19.15Q568.99-19.15 567.26-16.95 565.54-14.75 565.54-11.45L565.54-11.45Q565.54-8.25 567.39-6.08 569.24-3.9 572.14-3.9L572.14-3.9ZM589.58 0L589.58-22.95 594.98-22.95 594.98-18.45Q595.78-20.75 597.58-22.15 599.38-23.55 601.68-23.55L601.68-23.55Q603.28-23.55 603.88-23.25L603.88-23.25 603.13-17.8Q602.68-18.1 601.18-18.1L601.18-18.1Q598.83-18.1 596.91-16.6 594.98-15.1 594.98-11.8L594.98-11.8 594.98 0 589.58 0ZM618.53 0.5Q614.43 0.5 611.68-1.13 608.93-2.75 607.63-5.48 606.33-8.2 606.33-11.45L606.33-11.45Q606.33-15.1 607.86-17.85 609.38-20.6 612.08-22.08 614.78-23.55 618.18-23.55L618.18-23.55Q623.48-23.55 626.06-20.63 628.63-17.7 628.63-12.4L628.63-12.4Q628.63-11.05 628.48-9.6L628.48-9.6 611.98-9.6Q612.53-6.55 614.16-5.2 615.78-3.85 618.68-3.85L618.68-3.85Q621.08-3.85 622.63-4.25 624.18-4.65 625.48-5.35L625.48-5.35 627.13-1.5Q625.88-0.7 623.73-0.1 621.58 0.5 618.53 0.5L618.53 0.5ZM611.98-13.35L623.38-13.35Q623.43-16.45 622.03-17.73 620.63-19 618.03-19L618.03-19Q612.78-19 611.98-13.35L611.98-13.35ZM644.43 0.5Q641.33 0.5 638.7-0.98 636.08-2.45 634.5-5.18 632.93-7.9 632.93-11.55L632.93-11.55Q632.93-17 635.98-20.28 639.03-23.55 644.23-23.55L644.23-23.55Q647.13-23.55 649.53-22.13 651.93-20.7 652.78-18.7L652.78-18.7 652.53-22.6 652.53-36.75 657.83-36.75 657.83 0 652.68 0 652.58-4.05Q651.73-2.25 649.48-0.88 647.23 0.5 644.43 0.5L644.43 0.5ZM645.33-4.05Q648.18-4.05 650.13-6.03 652.08-8 652.08-11.2L652.08-11.2 652.08-11.55Q652.08-13.7 651.18-15.4 650.28-17.1 648.73-18.05 647.18-19 645.33-19L645.33-19Q642.13-19 640.38-16.93 638.63-14.85 638.63-11.55L638.63-11.55Q638.63-8.2 640.35-6.13 642.08-4.05 645.33-4.05L645.33-4.05ZM679.37 0L679.37-18.65 675.67-18.65 675.67-22.95 679.37-22.95 679.37-27.9Q679.37-32.4 681.55-34.88 683.72-37.35 687.92-37.35L687.92-37.35Q689.62-37.35 691.77-36.4L691.77-36.4 690.72-31.3Q690.37-31.7 689.65-32.08 688.92-32.45 688.07-32.45L688.07-32.45Q684.72-32.45 684.67-28.1L684.67-28.1 684.67-22.95 690.07-22.95 690.07-18.65 684.67-18.65 684.67 0 679.37 0ZM706.02 0.5Q702.47 0.5 699.72-1.1 696.97-2.7 695.47-5.45 693.97-8.2 693.97-11.55L693.97-11.55Q693.97-14.85 695.45-17.6 696.92-20.35 699.67-21.95 702.42-23.55 706.02-23.55L706.02-23.55Q709.62-23.55 712.35-21.95 715.07-20.35 716.55-17.6 718.02-14.85 718.02-11.55L718.02-11.55Q718.02-8.2 716.52-5.45 715.02-2.7 712.3-1.1 709.57 0.5 706.02 0.5L706.02 0.5ZM706.17-3.9Q709.07-3.9 710.75-6.05 712.42-8.2 712.42-11.45L712.42-11.45Q712.42-14.7 710.62-16.93 708.82-19.15 705.87-19.15L705.87-19.15Q703.02-19.15 701.3-16.95 699.57-14.75 699.57-11.45L699.57-11.45Q699.57-8.25 701.42-6.08 703.27-3.9 706.17-3.9L706.17-3.9ZM723.62 0L723.62-22.95 729.02-22.95 729.02-18.45Q729.82-20.75 731.62-22.15 733.42-23.55 735.72-23.55L735.72-23.55Q737.32-23.55 737.92-23.25L737.92-23.25 737.17-17.8Q736.72-18.1 735.22-18.1L735.22-18.1Q732.87-18.1 730.94-16.6 729.02-15.1 729.02-11.8L729.02-11.8 729.02 0 723.62 0ZM762.36 0L762.36-17.15 749.61-36.75 756.31-36.75 765.16-22.25 774.01-36.75 780.66-36.75 767.96-17.05 767.96 0 762.36 0ZM790.61 0.5Q787.06 0.5 784.31-1.1 781.56-2.7 780.06-5.45 778.56-8.2 778.56-11.55L778.56-11.55Q778.56-14.85 780.04-17.6 781.51-20.35 784.26-21.95 787.01-23.55 790.61-23.55L790.61-23.55Q794.21-23.55 796.94-21.95 799.66-20.35 801.14-17.6 802.61-14.85 802.61-11.55L802.61-11.55Q802.61-8.2 801.11-5.45 799.61-2.7 796.89-1.1 794.16 0.5 790.61 0.5L790.61 0.5ZM790.76-3.9Q793.66-3.9 795.34-6.05 797.01-8.2 797.01-11.45L797.01-11.45Q797.01-14.7 795.21-16.93 793.41-19.15 790.46-19.15L790.46-19.15Q787.61-19.15 785.89-16.95 784.16-14.75 784.16-11.45L784.16-11.45Q784.16-8.25 786.01-6.08 787.86-3.9 790.76-3.9L790.76-3.9ZM816.31 0.5Q811.56 0.5 809.78-2.3 808.01-5.1 808.01-10.1L808.01-10.1 808.01-22.95 813.41-22.95 813.41-11.45Q813.41-8.6 813.73-7.03 814.06-5.45 815.03-4.7 816.01-3.95 817.96-3.95L817.96-3.95Q819.36-3.95 820.66-4.75 821.96-5.55 822.78-6.93 823.61-8.3 823.61-9.95L823.61-9.95 823.61-22.95 828.96-22.95 828.96 0 824.56 0 823.96-3.35Q822.71-1.4 820.83-0.45 818.96 0.5 816.31 0.5L816.31 0.5Z" opacity="1" transform="matrix(1,0,0,1,0,0)" fill="#000000" class="slogan-text-1" data-fill-palette-color="secondary" id="text-1"></path></svg></g></svg></g></svg></g></svg></g><g transform="matrix(1,0,0,1,0,15.894941467916205)"><svg viewBox="0 0 110.00900900030052 88.77174857553207" height="88.77174857553207" width="110.00900900030052"><g><svg xmlns="http://www.w3.org/2000/svg" xmlns:xlink="http://www.w3.org/1999/xlink" version="1.1" x="0" y="0" viewBox="27.993 33.023 42.735 34.48499999999999" enable-background="new 0 0 100 100" xml:space="preserve" height="88.77174857553207" width="110.00900900030052" class="icon-icon-0" data-fill-palette-color="accent" id="icon-0"><path d="M27.993 35.58L35.298 42.883 27.993 50.189 30.55 52.746 40.413 42.884 30.55 33.023zM42.148 47.975V51.592H70.728V47.975zM42.148 59.55H70.728V55.933H42.148zM42.148 67.508H56.438V63.891H42.148z" fill="#000000" data-fill-palette-color="accent"></path></svg></g></svg></g></svg></g><defs></defs></svg><rect width="395.52" height="86.67861554902731" fill="none" stroke="none" visibility="hidden"></rect></g></svg></g></svg>